<mxfile host="app.diagrams.net" modified="2024-02-19T11:41:05.547Z" agent="Mozilla/5.0 (Windows NT 10.0; Win64; x64) AppleWebKit/537.36 (KHTML, like Gecko) Chrome/121.0.0.0 Safari/537.36" version="23.1.5" etag="_7xR5QCFG5vo6vd9C4aA" type="github">
  <diagram name="第 1 页" id="SUwuI1Q6Snsl01Zs51I-">
    <mxGraphModel>
      <root>
        <mxCell id="0" />
        <mxCell id="1" parent="0" />
      </root>
    </mxGraphModel>
  </diagram>
</mxfile>
